<svg id="Layer_1" data-name="Layer 1" xmlns="http://www.w3.org/2000/svg" width="64" height="64" viewBox="0 0 64 64">
  <title>dev-icon</title>
  <g>
    <circle cx="14.76" cy="36.9" r="1.01" style="fill: #13384d"/>
    <circle cx="14.76" cy="24.74" r="1.01" style="fill: #13384d"/>
    <path d="M8,32v6.93A4.8,4.8,0,0,0,12.74,44H32V54H18.82a1,1,0,1,0,0,2H45.18a1,1,0,1,0,0-2H34V44H51.26A4.8,4.8,0,0,0,56,38.93V32H8Zm6.76,7.94a3,3,0,1,1,3-3A3,3,0,0,1,14.76,39.94Zm21.29-1a2,2,0,1,1,2-2A2,2,0,0,1,36.06,38.93Zm6.08,0a2,2,0,1,1,2-2A2,2,0,0,1,42.14,38.93Zm6.08,0a2,2,0,1,1,2-2A2,2,0,0,1,48.22,38.93Z" style="fill: #13384d"/>
    <path d="M43.8,8.17A1,1,0,0,0,43.15,8H20.85a1,1,0,0,0-.65.17L8.31,18H55.69Z" style="fill: #13384d"/>
    <path d="M56,20H8V30H56V20ZM14.76,27.78a3,3,0,1,1,3-3A3,3,0,0,1,14.76,27.78Zm21.29-1a2,2,0,1,1,2-2A2,2,0,0,1,36.06,26.76Zm6.08,0a2,2,0,1,1,2-2A2,2,0,0,1,42.14,26.76Zm6.08,0a2,2,0,1,1,2-2A2,2,0,0,1,48.22,26.76Z" style="fill: #13384d"/>
    <circle cx="10.71" cy="55.15" r="1.01" style="fill: #13384d"/>
    <circle cx="14.76" cy="55.15" r="1.01" style="fill: #13384d"/>
    <circle cx="49.24" cy="55.15" r="1.01" style="fill: #13384d"/>
    <circle cx="53.29" cy="55.15" r="1.01" style="fill: #13384d"/>
  </g>
</svg>
