<svg id="Layer_1" data-name="Layer 1" xmlns="http://www.w3.org/2000/svg" width="128" height="128" viewBox="0 0 128 128">
  <title>dev-icon</title>
  <g>
    <path d="M46,17H27.08A10.19,10.19,0,0,0,17,27.18a2.46,2.46,0,1,0,4.92,0A5.24,5.24,0,0,1,27.08,22H46a5.14,5.14,0,0,1,5,5.29V46.2A4.8,4.8,0,0,1,46,51H27.08a5,5,0,0,1-5.15-5,2.43,2.43,0,0,0-2.46-2.4,3.07,3.07,0,0,0-2.46,3C17,52,21.48,57,27.08,57H46c5.48,0,10-5.32,10-10.8V27.29A10.23,10.23,0,0,0,46,17Z" style="fill: #4069FF"/>
    <path d="M46,69H27.08C21.6,69,17,72.83,17,78.31V97.23A9.86,9.86,0,0,0,27.08,107H46a9.8,9.8,0,0,0,10-9.77V78.31C56,72.83,51.47,69,46,69Zm5,28.23A4.78,4.78,0,0,1,46,102H27.08c-2.8,0-6.08-1.86-6.08-4.77V78.31c0-2.8,3.17-5.31,6.08-5.31H46a5.24,5.24,0,0,1,5,5.31V97.23Z" style="fill: #4069FF"/>
    <path d="M78.11,57H97c5.48,0,10-5.32,10-10.8V27.29A10.21,10.21,0,0,0,97,17H78.11A10.32,10.32,0,0,0,68,27.29V46.2C68,51.68,72.63,57,78.11,57ZM73,27.29A5.29,5.29,0,0,1,78.11,22H97a5.12,5.12,0,0,1,5,5.29V46.2A4.71,4.71,0,0,1,97,51H78.11A4.88,4.88,0,0,1,73,46.2V27.29Z" style="fill: #4069FF"/>
    <path d="M108.1,80.78L94.67,67.35a10,10,0,0,0-14.1,0L67.14,80.78a10,10,0,0,0,0,14.1L80.57,108.3a10,10,0,0,0,14.1,0L108.1,94.88A9.81,9.81,0,0,0,111,87.83,9.63,9.63,0,0,0,108.1,80.78Zm-3.47,10.63L91.2,104.84a5.13,5.13,0,0,1-7.27,0L70.5,91.41a5.13,5.13,0,0,1,0-7.27L83.93,70.7a5.08,5.08,0,0,1,3.58-1.45,4.9,4.9,0,0,1,3.58,1.45l13.43,13.43A5,5,0,0,1,104.63,91.41Z" style="fill: #4069FF"/>
  </g>
</svg>
