<?xml version="1.0" encoding="utf-8"?>
<!-- Generator: Adobe Illustrator 21.1.0, SVG Export Plug-In . SVG Version: 6.00 Build 0)  -->
<svg version="1.1" id="Layer_1" xmlns:sketch="http://www.bohemiancoding.com/sketch/ns"
	 xmlns="http://www.w3.org/2000/svg" xmlns:xlink="http://www.w3.org/1999/xlink" x="0px" y="0px" viewBox="0 0 94.6 24"
	 style="enable-background:new 0 0 94.6 24;" xml:space="preserve">
<style type="text/css">
	.st0{fill:#FFFFFF;}
</style>
<title>Developer logo</title>
<desc>Created with Sketch.</desc>
<path class="st0" d="M9.4,2.7C8.3,3.7,7.5,5.1,7.1,6.6c-3.8,1-6.5,4.4-6.5,8.3l6.1-6.2c0,0.5,0.1,1.1,0.1,1.6l-6.1,6.1
	c0.2,0.9,0.5,1.8,0.9,2.6l3.9-3.8c-0.1-1.1,0.3-2.1,1.1-2.9C6.9,12.2,7,12,7.3,11.8l0,0c0.9,2.4,2.8,4.2,5.1,5.1l0,0
	c-0.7,1.1-2,1.8-3.4,1.7l-3.9,4c0.8,0.4,1.7,0.7,2.6,0.9l6.2-6.1c0.6,0.1,1.1,0.2,1.6,0.2l-6.2,6.1c3.9-0.1,7.4-2.7,8.3-6.5
	c4.7-1.2,7.4-6,6.2-10.6C22.7,2,18-0.8,13.3,0.5c0,0,0,0-0.1,0C11.8,0.8,10.5,1.5,9.4,2.7z M18.1,11.4c-1.5,1.5-3.8,1.4-5.2-0.1
	c-1.5-1.5-1.4-3.8,0.1-5.2s3.8-1.4,5.2,0C19.6,7.7,19.6,9.9,18.1,11.4z"/>
<path class="st0" d="M6.7,17.6c-0.3-0.3-0.6-0.7-0.7-1l-3.7,3.6l0.8,1c0.3,0.3,0.7,0.6,1,0.8l3.6-3.6L6.7,17.6z"/>
<path class="st0" d="M42.2,11.2c2,0,3.4,1.6,3.4,3.8s-1.4,3.8-3.4,3.8c-0.7,0-1.4-0.2-1.9-0.7c-0.1-0.1-0.2,0-0.2,0.1v3.4
	c0,0,0,0.1-0.1,0.1l0,0h-1.6c0,0-0.1,0-0.1-0.1l0,0V11.3c0,0,0-0.1,0.1-0.1l0,0h1.1c0.1,0,0.2,0,0.2,0.1l0.3,0.5
	c0.1,0.1,0.2,0.1,0.2,0C40.9,11.4,41.6,11.2,42.2,11.2 M42,12.7c-1.1,0-1.7,0.9-1.7,2.3c0,1.5,0.6,2.3,1.7,2.3
	c1.1,0,1.9-0.9,1.9-2.3C43.9,13.7,43.2,12.7,42,12.7"/>
<path class="st0" d="M90.7,19.8c-0.7,1.8-0.7,1.9-2.4,1.9h-2.1c0,0-0.1,0-0.1-0.1l0,0v-1.4c0-0.1,0-0.1,0.1-0.1H88
	c0.9,0,0.9-0.3,0.6-1.5l-2.5-7.3c0-0.1,0-0.1,0.1-0.1h1.7c0.1,0,0.1,0,0.1,0.1l1.8,5.7c0,0.1,0,0.1,0.1,0.1c0.1,0,0.1,0,0.1-0.1
	l1.8-5.7c0-0.1,0.1-0.1,0.1-0.1h1.7c0.1,0,0.1,0,0.1,0.1L90.7,19.8z"/>
<path class="st0" d="M32.8,18.9c-3.1,0-4.7-2.2-4.7-5.3s1.6-5.3,4.7-5.3c3.1,0,4.7,2.2,4.7,5.3S36,18.9,32.8,18.9 M35.6,13.5
	c0-2.3-1-3.7-2.9-3.7c-1.8,0-2.9,1.4-2.9,3.7s1,3.7,2.9,3.7S35.6,15.9,35.6,13.5"/>
<path class="st0" d="M45.9,12.8C45.8,12.8,45.8,12.8,45.9,12.8C45.8,12.8,45.8,12.8,45.9,12.8l-0.1-1.5c0,0,0-0.1,0.1-0.1l0,0h1.2
	c0,0,0.1,0,0.1-0.1l0,0v-2c0,0,0-0.1,0.1-0.1l0,0h1.6c0,0,0.1,0,0.1,0.1l0,0v2c0,0,0,0.1,0.1,0.1l0,0h1.5c0,0,0.1,0,0.1,0.1l0,0v1.4
	l-0.1,0.1H49c0,0-0.1,0-0.1,0.1l0,0v3.7c0,0.2,0.2,0.5,0.5,0.5l0,0h1.1c0,0,0.1,0,0.1,0.1l0,0v1.5c0,0,0,0.1-0.1,0.1l0,0h-1.1
	c-1.6,0-2.2-0.6-2.2-2V13c0,0,0-0.1-0.1-0.1l0,0L45.9,12.8L45.9,12.8z"/>
<path class="st0" d="M51.7,8.4h1.6c0,0,0.1,0,0.1,0.1v1.6c0,0,0,0.1-0.1,0.1h-1.6c0,0-0.1,0-0.1-0.1L51.7,8.4
	C51.6,8.4,51.7,8.4,51.7,8.4z"/>
<path class="st0" d="M51.7,11.3h1.6c0.1,0,0.1,0,0.1,0.1v7.3c0,0.1,0,0.1-0.1,0.1h-1.6c-0.1,0-0.1,0-0.1-0.1L51.7,11.3
	C51.6,11.3,51.7,11.3,51.7,11.3z"/>
<path class="st0" d="M63.4,18.8C63.4,18.8,63.4,18.7,63.4,18.8C63.4,18.7,63.4,18.7,63.4,18.8l-0.1-4.2c0-0.9-0.3-1.8-1.3-1.8
	c-1,0-1.3,0.8-1.3,1.8v4.1c0,0,0,0.1-0.1,0.1l0,0h-1.6c0,0-0.1,0-0.1-0.1l0,0v-4.1c0-0.9-0.3-1.8-1.3-1.8s-1.3,0.8-1.3,1.8v4.1
	c0,0,0,0.1-0.1,0.1l0,0h-1.6c0,0-0.1,0-0.1-0.1l0,0v-7.3c0,0,0-0.1,0.1-0.1l0,0h1.4c0.1,0,0.2,0,0.2,0.1l0.2,0.4
	c0,0.1,0.1,0.1,0.1,0.1l0,0c0.5-0.4,1.1-0.7,1.8-0.7c0.7,0,1.5,0.3,1.9,0.9c0,0,0.1,0.1,0.1,0l0,0c0.5-0.6,1.1-0.9,1.9-0.9
	c1.9,0,2.9,1.1,2.9,3.4v4.2c0,0,0,0.1-0.1,0.1l0,0L63.4,18.8z"/>
<path class="st0" d="M66.3,8.4h1.6c0,0,0.1,0,0.1,0.1v1.6c0,0,0,0.1-0.1,0.1h-1.6c0,0-0.1,0-0.1-0.1L66.3,8.4L66.3,8.4z"/>
<path class="st0" d="M66.3,11.3h1.6c0.1,0,0.1,0,0.1,0.1v7.3c0,0.1,0,0.1-0.1,0.1h-1.6c-0.1,0-0.1,0-0.1-0.1L66.3,11.3
	C66.2,11.3,66.3,11.3,66.3,11.3z"/>
<path class="st0" d="M69.1,18.8C69.1,18.8,69,18.8,69.1,18.8L69.1,18.8L69,17.3c0-0.1,0-0.1,0.1-0.2l3.5-4.1V13c0,0,0,0-0.1,0h-3.4
	c0,0-0.1,0-0.1-0.1l0,0v-1.5c0,0,0-0.1,0.1-0.1l0,0h5.6c0,0,0.1,0,0.1,0.1l0,0v1.4v0.1L71.3,17v0.1c0,0,0,0,0.1,0H75
	c0,0,0.1,0,0.1,0.1l0,0v1.5c0,0,0,0.1-0.1,0.1l0,0L69.1,18.8z"/>
<path class="st0" d="M82.4,15.7h-5.1c0,0-0.1,0-0.1,0.1l0,0c0.1,0.9,0.8,1.6,1.6,1.5h0.1c0.6,0.1,1.1-0.2,1.4-0.7
	c0-0.1,0.1-0.1,0.1-0.1h1.7c0.1,0,0.1,0,0.1,0.1c-0.3,1.4-1.6,2.3-3.4,2.3c-2.1,0-3.6-1.6-3.6-3.8s1.5-3.8,3.6-3.8
	c2.1,0,3.6,1.6,3.6,3.8C82.5,15.3,82.5,15.4,82.4,15.7C82.5,15.7,82.4,15.7,82.4,15.7 M80.6,14.2L80.6,14.2c0.1-0.7-0.4-1.5-1.6-1.5
	c-1.2,0-1.7,0.8-1.7,1.4c0,0.1,0,0.1,0.1,0.1H80.6z"/>
<path class="st0" d="M83.5,8.4h1.6c0.1,0,0.1,0,0.1,0.1v10.2c0,0.1,0,0.1-0.1,0.1h-1.6c-0.1,0-0.1,0-0.1-0.1L83.5,8.4
	C83.4,8.4,83.5,8.4,83.5,8.4z"/>
</svg>
