<?xml version="1.0" encoding="utf-8"?>
<!-- Generator: Adobe Illustrator 21.1.0, SVG Export Plug-In . SVG Version: 6.00 Build 0)  -->
<svg version="1.1" id="Layer_1" xmlns="http://www.w3.org/2000/svg" xmlns:xlink="http://www.w3.org/1999/xlink" x="0px" y="0px"
	 viewBox="0 0 244 30" style="enable-background:new 0 0 244 30;" xml:space="preserve">
<style type="text/css">
	.st0{fill:#4069FF;}
	.st1{font-family:'NBInternationalPro-Regular';}
	.st2{font-size:14px;}
</style>
<path class="st0" d="M11.1,3.6c-1.3,1.3-2.3,3-2.8,4.8c-4.6,1.2-7.9,5.4-7.9,10.2L7.9,11c0,0.6,0.1,1.3,0.1,2l-7.5,7.5
	c0.2,1.1,0.6,2.2,1.1,3.2L6.4,19c-0.1-1.3,0.4-2.6,1.3-3.5C8,15.2,8.2,15,8.5,14.8l0,0c1.1,2.9,3.4,5.2,6.3,6.3l0,0
	c-0.9,1.4-2.4,2.2-4.1,2.1l-4.8,4.9c1,0.5,2.1,0.9,3.2,1.1l7.6-7.5c0.7,0.1,1.3,0.2,2,0.2l-7.6,7.5c4.8-0.1,9-3.3,10.2-7.9
	c5.7-1.5,9.1-7.3,7.6-13c-1.5-5.7-7.3-9.1-13-7.6c0,0,0,0-0.1,0C14,1.3,12.4,2.2,11.1,3.6z M21.8,14.3c-1.8,1.8-4.7,1.7-6.4-0.1
	c-1.8-1.8-1.7-4.7,0.1-6.4c1.8-1.7,4.6-1.7,6.4,0C23.6,9.7,23.6,12.5,21.8,14.3z"/>
<path class="st0" d="M7.8,21.9c-0.4-0.4-0.7-0.8-0.9-1.2l-4.5,4.4l1,1.2c0.4,0.4,0.8,0.7,1.2,1L9,22.9L7.8,21.9z"/>
<path class="st0" d="M51.3,14c2.5,0,4.1,1.9,4.1,4.7s-1.7,4.7-4.1,4.7c-0.9,0-1.7-0.3-2.3-0.9c-0.1-0.1-0.2,0-0.2,0.1v4.1
	c0,0,0,0.1-0.1,0.1c0,0,0,0,0,0h-1.9c0,0-0.1,0-0.1-0.1c0,0,0,0,0,0V14.2c0,0,0-0.1,0.1-0.1c0,0,0,0,0,0h1.3c0.1,0,0.2,0,0.3,0.1
	l0.4,0.6c0.1,0.1,0.2,0.1,0.2,0C49.7,14.3,50.5,14,51.3,14 M51,15.9c-1.4,0-2.1,1.1-2.1,2.8c0,1.8,0.7,2.8,2.1,2.8
	c1.4,0,2.3-1.1,2.3-2.8C53.3,17.1,52.5,15.9,51,15.9"/>
<path class="st0" d="M110.6,24.5c-0.8,2.2-0.9,2.3-2.9,2.3h-2.6c0,0-0.1,0-0.1-0.1c0,0,0,0,0,0V25c0-0.1,0-0.1,0.1-0.1h2.2
	c1.1,0,1.1-0.4,0.7-1.8l-3-8.9c0-0.1,0-0.1,0.1-0.1h2.1c0.1,0,0.1,0,0.1,0.1l2.2,7c0,0.1,0,0.1,0.1,0.1c0.1,0,0.1,0,0.1-0.1l2.2-7
	c0-0.1,0.1-0.1,0.1-0.1h2.1c0.1,0,0.1,0,0.1,0.1L110.6,24.5z"/>
<path class="st0" d="M39.8,23.4c-3.8,0-5.7-2.7-5.7-6.5s1.9-6.5,5.7-6.5s5.7,2.7,5.7,6.5S43.6,23.4,39.8,23.4 M43.2,16.9
	c0-2.8-1.2-4.5-3.5-4.5c-2.2,0-3.5,1.7-3.5,4.5s1.2,4.5,3.5,4.5S43.2,19.8,43.2,16.9"/>
<path class="st0" d="M55.8,16C55.7,16,55.7,16,55.8,16C55.7,16,55.7,16,55.8,16l-0.1-1.8c0,0,0-0.1,0.1-0.1c0,0,0,0,0,0h1.5
	c0,0,0.1,0,0.1-0.1c0,0,0,0,0,0v-2.4c0,0,0-0.1,0.1-0.1c0,0,0,0,0,0h1.9c0,0,0.1,0,0.1,0.1c0,0,0,0,0,0v2.5c0,0,0,0.1,0.1,0.1
	c0,0,0,0,0,0h1.8c0,0,0.1,0,0.1,0.1c0,0,0,0,0,0V16c0,0-0.1,0.1-0.1,0.1h-1.8c0,0-0.1,0-0.1,0.1c0,0,0,0,0,0v4.5
	c0,0.3,0.3,0.6,0.6,0.6c0,0,0,0,0,0h1.3c0,0,0.1,0,0.1,0.1c0,0,0,0,0,0v1.8c0,0,0,0.1-0.1,0.1c0,0,0,0,0,0H60
	c-1.9,0-2.7-0.7-2.7-2.5v-4.6c0,0,0-0.1-0.1-0.1c0,0,0,0,0,0H55.8z"/>
<path class="st0" d="M62.9,10.6h2c0,0,0.1,0,0.1,0.1v2c0,0,0,0.1-0.1,0.1h-2c0,0-0.1,0-0.1-0.1L62.9,10.6
	C62.8,10.6,62.9,10.6,62.9,10.6z"/>
<path class="st0" d="M62.9,14.1h2c0.1,0,0.1,0,0.1,0.1v8.9c0,0.1,0,0.1-0.1,0.1h-2c-0.1,0-0.1,0-0.1-0.1L62.9,14.1
	C62.8,14.2,62.9,14.1,62.9,14.1z"/>
<path class="st0" d="M77.2,23.3C77.2,23.3,77.2,23.2,77.2,23.3C77.2,23.2,77.2,23.2,77.2,23.3l-0.1-5.1c0-1.1-0.4-2.2-1.6-2.2
	s-1.6,1-1.6,2.2v5c0,0,0,0.1-0.1,0.1c0,0,0,0,0,0h-1.9c0,0-0.1,0-0.1-0.1c0,0,0,0,0,0v-5c0-1.1-0.4-2.2-1.6-2.2
	c-1.2,0-1.6,1-1.6,2.2v5c0,0,0,0.1-0.1,0.1c0,0,0,0,0,0h-1.9c0,0-0.1,0-0.1-0.1c0,0,0,0,0,0v-8.9c0,0,0-0.1,0.1-0.1c0,0,0,0,0,0h1.7
	c0.1,0,0.2,0,0.2,0.1l0.2,0.5c0,0.1,0.1,0.1,0.1,0.1c0,0,0,0,0,0c0.6-0.5,1.4-0.8,2.2-0.9c0.9,0,1.8,0.4,2.3,1.1c0,0,0.1,0.1,0.1,0
	c0,0,0,0,0,0c0.6-0.7,1.4-1.1,2.3-1.1c2.3,0,3.6,1.3,3.6,4.1v5.1c0,0,0,0.1-0.1,0.1c0,0,0,0,0,0L77.2,23.3z"/>
<path class="st0" d="M80.7,10.6h2c0,0,0.1,0,0.1,0.1v2c0,0,0,0.1-0.1,0.1h-2c0,0-0.1,0-0.1-0.1L80.7,10.6
	C80.7,10.6,80.7,10.6,80.7,10.6z"/>
<path class="st0" d="M80.7,14.1h2c0.1,0,0.1,0,0.1,0.1v8.9c0,0.1,0,0.1-0.1,0.1h-2c-0.1,0-0.1,0-0.1-0.1L80.7,14.1
	C80.6,14.2,80.7,14.1,80.7,14.1z"/>
<path class="st0" d="M84.2,23.3c0,0-0.1,0-0.1-0.1c0,0,0,0,0,0v-1.7c0-0.1,0-0.1,0.1-0.2l4.3-5c0,0,0-0.1,0-0.1c0,0,0,0-0.1,0h-4.1
	c0,0-0.1,0-0.1-0.1c0,0,0,0,0,0v-1.8c0,0,0-0.1,0.1-0.1c0,0,0,0,0,0h6.8c0,0,0.1,0,0.1,0.1c0,0,0,0,0,0V16c0,0,0,0.1,0,0.1l-4.3,5
	c0,0,0,0.1,0,0.1c0,0,0,0,0.1,0h4.4c0,0,0.1,0,0.1,0.1c0,0,0,0,0,0v1.8c0,0,0,0.1-0.1,0.1c0,0,0,0,0,0L84.2,23.3z"/>
<path class="st0" d="M100.5,19.5h-6.3c0,0-0.1,0-0.1,0.1c0,0,0,0,0,0c0.1,1.1,1,1.9,2,1.8c0,0,0.1,0,0.1,0c0.7,0.1,1.4-0.2,1.7-0.8
	c0-0.1,0.1-0.1,0.1-0.1h2.1c0.1,0,0.1,0,0.1,0.1c-0.4,1.7-2,2.8-4.1,2.8c-2.6,0-4.4-1.9-4.4-4.7s1.8-4.7,4.4-4.7
	c2.6,0,4.4,1.9,4.4,4.7C100.6,19,100.6,19.2,100.5,19.5C100.6,19.5,100.5,19.5,100.5,19.5 M98.3,17.7C98.3,17.7,98.3,17.7,98.3,17.7
	c0.1-0.8-0.5-1.8-2-1.8c-1.5,0-2.1,1-2.1,1.7c0,0.1,0,0.1,0.1,0.1H98.3z"/>
<path class="st0" d="M101.8,10.6h2c0.1,0,0.1,0,0.1,0.1v12.5c0,0.1,0,0.1-0.1,0.1h-2c-0.1,0-0.1,0-0.1-0.1L101.8,10.6
	C101.7,10.6,101.8,10.6,101.8,10.6z"/>
<text transform="matrix(1 0 0 1 125.6704 23.2362)" class="st1 st2">Developers</text>
</svg>
