<?xml version="1.0" encoding="utf-8"?>
<!-- Generator: Adobe Illustrator 21.1.0, SVG Export Plug-In . SVG Version: 6.00 Build 0)  -->
<svg version="1.1" id="Layer_1" xmlns:sketch="http://www.bohemiancoding.com/sketch/ns"
	 xmlns="http://www.w3.org/2000/svg" xmlns:xlink="http://www.w3.org/1999/xlink" x="0px" y="0px" viewBox="0 0 92.2 24"
	 style="enable-background:new 0 0 92.2 24;" xml:space="preserve">
<style type="text/css">
	.st0{fill:#4069FF;}
</style>
<title>Artboard 20</title>
<desc>Created with Sketch.</desc>
<path class="st0" d="M9,3c-1,1-1.8,2.4-2.2,3.9c-3.7,1-6.3,4.3-6.3,8.2l6-6.1c0,0.5,0.1,1,0.1,1.6l-6,6c0.2,0.9,0.5,1.8,0.9,2.6
	l3.9-3.8c-0.1-1,0.3-2.1,1-2.8c0.2-0.2,0.4-0.4,0.6-0.6l0,0c0.9,2.3,2.7,4.2,5.1,5.1l0,0c-0.7,1.1-1.9,1.8-3.3,1.7l-3.9,3.9
	c0.8,0.4,1.7,0.7,2.6,0.9l6.1-6c0.6,0.1,1,0.2,1.6,0.2l-6.1,6c3.9-0.1,7.2-2.6,8.2-6.3c4.6-1.2,7.3-5.9,6.1-10.4s-5.9-7.3-10.4-6.1
	c0,0,0,0-0.1,0C11.3,1.2,10,1.9,9,3z M17.6,11.6c-1.4,1.4-3.8,1.4-5.1-0.1c-1.4-1.4-1.4-3.8,0.1-5.1C14,5,16.2,5,17.6,6.4
	C19,7.9,19,10.2,17.6,11.6z"/>
<path class="st0" d="M6.3,17.7c-0.3-0.3-0.6-0.6-0.7-1L2,20.3l0.8,1c0.3,0.3,0.6,0.6,1,0.8l3.5-3.5L6.3,17.7z"/>
<path class="st0" d="M41.2,11.4c2,0,3.3,1.5,3.3,3.8s-1.4,3.8-3.3,3.8c-0.7,0-1.4-0.2-1.8-0.7c-0.1-0.1-0.2,0-0.2,0.1v3.3
	c0,0,0,0.1-0.1,0.1l0,0h-1.5c0,0-0.1,0-0.1-0.1l0,0v-10c0,0,0-0.1,0.1-0.1l0,0h1c0.1,0,0.2,0,0.2,0.1l0.3,0.5c0.1,0.1,0.2,0.1,0.2,0
	C40,11.6,40.6,11.4,41.2,11.4 M41,12.9c-1.1,0-1.7,0.9-1.7,2.2c0,1.4,0.6,2.2,1.7,2.2s1.8-0.9,1.8-2.2C42.8,13.9,42.2,12.9,41,12.9"
	/>
<path class="st0" d="M88.8,19.8c-0.6,1.8-0.7,1.8-2.3,1.8h-2.1c0,0-0.1,0-0.1-0.1l0,0v-1.4c0-0.1,0-0.1,0.1-0.1h1.8
	c0.9,0,0.9-0.3,0.6-1.4l-2.4-7.1c0-0.1,0-0.1,0.1-0.1h1.7c0.1,0,0.1,0,0.1,0.1l1.8,5.6c0,0.1,0,0.1,0.1,0.1c0.1,0,0.1,0,0.1-0.1
	l1.8-5.6c0-0.1,0.1-0.1,0.1-0.1h1.7c0.1,0,0.1,0,0.1,0.1L88.8,19.8z"/>
<path class="st0" d="M32,18.9c-3,0-4.6-2.2-4.6-5.2S29,8.5,32,8.5s4.6,2.2,4.6,5.2S35.1,18.9,32,18.9 M34.7,13.7
	c0-2.2-1-3.6-2.8-3.6c-1.8,0-2.8,1.4-2.8,3.6s1,3.6,2.8,3.6C33.8,17.3,34.7,16,34.7,13.7"/>
<path class="st0" d="M44.8,13C44.8,13,44.8,13,44.8,13C44.8,13,44.8,13,44.8,13l-0.1-1.4c0,0,0-0.1,0.1-0.1l0,0H46
	c0,0,0.1,0,0.1-0.1l0,0V9.5c0,0,0-0.1,0.1-0.1l0,0h1.5c0,0,0.1,0,0.1,0.1l0,0v2c0,0,0,0.1,0.1,0.1l0,0h1.4c0,0,0.1,0,0.1,0.1l0,0V13
	l-0.1,0.1h-1.4c0,0-0.1,0-0.1,0.1l0,0v3.6c0,0.2,0.2,0.5,0.5,0.5l0,0h1c0,0,0.1,0,0.1,0.1l0,0v1.4c0,0,0,0.1-0.1,0.1l0,0h-1.1
	c-1.5,0-2.2-0.6-2.2-2v-3.7c0,0,0-0.1-0.1-0.1l0,0L44.8,13L44.8,13z"/>
<path class="st0" d="M50.5,8.7h1.6c0,0,0.1,0,0.1,0.1v1.6c0,0,0,0.1-0.1,0.1h-1.6c0,0-0.1,0-0.1-0.1L50.5,8.7
	C50.5,8.7,50.5,8.7,50.5,8.7z"/>
<path class="st0" d="M50.5,11.5h1.6c0.1,0,0.1,0,0.1,0.1v7.1c0,0.1,0,0.1-0.1,0.1h-1.6c-0.1,0-0.1,0-0.1-0.1L50.5,11.5
	C50.5,11.5,50.5,11.5,50.5,11.5z"/>
<path class="st0" d="M62,18.8C62,18.8,62,18.8,62,18.8C62,18.8,62,18.8,62,18.8l-0.1-4.1c0-0.9-0.3-1.8-1.3-1.8
	c-1,0-1.3,0.8-1.3,1.8v4c0,0,0,0.1-0.1,0.1l0,0h-1.5c0,0-0.1,0-0.1-0.1l0,0v-4c0-0.9-0.3-1.8-1.3-1.8c-1,0-1.3,0.8-1.3,1.8v4
	c0,0,0,0.1-0.1,0.1l0,0h-1.5c0,0-0.1,0-0.1-0.1l0,0v-7.1c0,0,0-0.1,0.1-0.1l0,0h1.4c0.1,0,0.2,0,0.2,0.1l0.2,0.4
	c0,0.1,0.1,0.1,0.1,0.1l0,0c0.5-0.4,1.1-0.6,1.8-0.7c0.7,0,1.4,0.3,1.8,0.9c0,0,0.1,0.1,0.1,0l0,0c0.5-0.6,1.1-0.9,1.8-0.9
	c1.8,0,2.9,1,2.9,3.3v4.1c0,0,0,0.1-0.1,0.1l0,0H62z"/>
<path class="st0" d="M64.8,8.7h1.6c0,0,0.1,0,0.1,0.1v1.6c0,0,0,0.1-0.1,0.1h-1.6c0,0-0.1,0-0.1-0.1L64.8,8.7L64.8,8.7z"/>
<path class="st0" d="M64.8,11.5h1.6c0.1,0,0.1,0,0.1,0.1v7.1c0,0.1,0,0.1-0.1,0.1h-1.6c-0.1,0-0.1,0-0.1-0.1L64.8,11.5
	C64.7,11.5,64.8,11.5,64.8,11.5z"/>
<path class="st0" d="M67.6,18.8C67.6,18.8,67.6,18.8,67.6,18.8L67.6,18.8l-0.1-1.4c0-0.1,0-0.1,0.1-0.2l3.5-4v-0.1c0,0,0,0-0.1,0
	h-3.3c0,0-0.1,0-0.1-0.1l0,0v-1.4c0,0,0-0.1,0.1-0.1l0,0h5.5c0,0,0.1,0,0.1,0.1l0,0V13v0.1l-3.5,4v0.1c0,0,0,0,0.1,0h3.5
	c0,0,0.1,0,0.1,0.1l0,0v1.4c0,0,0,0.1-0.1,0.1l0,0L67.6,18.8z"/>
<path class="st0" d="M80.7,15.8h-5.1c0,0-0.1,0-0.1,0.1l0,0c0.1,0.9,0.8,1.5,1.6,1.4h0.1c0.6,0.1,1.1-0.2,1.4-0.6
	c0-0.1,0.1-0.1,0.1-0.1h1.7c0.1,0,0.1,0,0.1,0.1c-0.3,1.4-1.6,2.2-3.3,2.2c-2.1,0-3.5-1.5-3.5-3.8s1.4-3.8,3.5-3.8
	c2.1,0,3.5,1.5,3.5,3.8C80.8,15.4,80.8,15.6,80.7,15.8C80.8,15.8,80.7,15.8,80.7,15.8 M78.9,14.3L78.9,14.3c0.1-0.6-0.4-1.4-1.6-1.4
	c-1.2,0-1.7,0.8-1.7,1.4c0,0.1,0,0.1,0.1,0.1H78.9z"/>
<path class="st0" d="M81.8,8.7h1.6c0.1,0,0.1,0,0.1,0.1v10c0,0.1,0,0.1-0.1,0.1h-1.6c-0.1,0-0.1,0-0.1-0.1L81.8,8.7
	C81.7,8.7,81.8,8.7,81.8,8.7z"/>
</svg>
