<svg id="Layer_1" data-name="Layer 1" xmlns="http://www.w3.org/2000/svg" width="67.46" height="64" viewBox="0 0 67.46 51.95">
  <defs>
    <style>
      .cls-1 { fill: none; } .cls-2 { fill: #fff; }
    </style>
  </defs>
  <title>
    ott
  </title>
  <path class="cls-1" d="M31.77 44.48h4.83v4.95h-4.83z"/>
  <path class="cls-2" d="M63.4 2.47H4.05a1.47 1.47 0 0 0-1.59 1.24v37.07a1.47 1.47 0 0 0 1.59 1.24H63.4a1.45 1.45 0 0 0 1.59-1.24V3.71a1.47 1.47 0 0 0-1.59-1.24z"/>
  <path d="M63.4 0H4.05A3.9 3.9 0 0 0-.01 3.7v37.07a3.9 3.9 0 0 0 4.06 3.7H29.3v5h-7.28a1.23 1.23 0 0 0 0 2.46h24.31a1.23 1.23 0 0 0 0-2.46h-7.28v-5H63.4a3.9 3.9 0 0 0 4.06-3.7V3.71A3.9 3.9 0 0 0 63.4 0zm1.59 40.77a1.45 1.45 0 0 1-1.59 1.24H4.05a1.47 1.47 0 0 1-1.59-1.24V3.71a1.47 1.47 0 0 1 1.59-1.24H63.4a1.47 1.47 0 0 1 1.59 1.24zm-28.4 8.66h-4.83v-5h4.83zM59.03 46.8zM57.03 44.8zM57.03 47.8zM55.03 45.8z" style="fill: #13384d"/>
  <path class="cls-1" d="M60.18 26.95a1.73 1.73 0 0 1 1.58 2l-.72 10 .72 10a1.73 1.73 0 0 1-1.58 2 1.73 1.73 0 0 0 1.58-2l-.72-10 .72-10a1.73 1.73 0 0 0-1.58-2z"/>
  <path d="M62.67 29.03a3.15 3.15 0 0 0-.64-2.17 2.3 2.3 0 0 0-1.85-.91h-6a2.3 2.3 0 0 0-1.82.91 3.09 3.09 0 0 0-.63 2.16l.72 10-.72 9.88a3.11 3.11 0 0 0 .64 2.18 2.29 2.29 0 0 0 1.81.9h6a2.3 2.3 0 0 0 1.81-.91 3.1 3.1 0 0 0 .63-2.17l-.72-9.92zm-.86 19.92a1.73 1.73 0 0 1-1.58 2h-6.05a1.73 1.73 0 0 1-1.58-2l.72-10-.72-10a1.72 1.72 0 0 1 1.58-2h6a1.73 1.73 0 0 1 1.58 2l-.72 10z" style="fill: #13384d"/>
  <path class="cls-2" d="M61.81 48.95l-.72-10 .72-10a1.73 1.73 0 0 0-1.58-2h-6.05a1.72 1.72 0 0 0-1.58 2l.72 10-.72 10a1.73 1.73 0 0 0 1.58 2h6a1.73 1.73 0 0 0 1.63-2z"/>
  <path class="cls-2" d="M52.56 48.95l.72-10-.72-10a1.72 1.72 0 0 1 1.58-2 1.72 1.72 0 0 0-1.58 2l.72 10-.72 10a1.73 1.73 0 0 0 1.58 2 1.73 1.73 0 0 1-1.58-2z"/>
  <path d="M57.18 48.45a1 1 0 0 1-.71-1.71 1.06 1.06 0 0 1 .71-.29 1 1 0 0 1 .71.29 1 1 0 0 1 0 1.41 1 1 0 0 1-.71.3zM59.18 46.45a1 1 0 0 1-.71-1.71 1 1 0 0 1 .71-.29 1 1 0 0 1 .71.29 1 1 0 0 1 0 1.41 1 1 0 0 1-.71.3zM55.18 46.45a1 1 0 0 1-.71-1.71 1 1 0 0 1 1.41 0 1 1 0 0 1 0 1.42 1 1 0 0 1-.7.29zM57.18 44.45a1 1 0 1 1 .71-.29 1 1 0 0 1-.71.29zM59.68 35.95h-1a.5.5 0 0 1 0-1h1a.5.5 0 0 1 0 1zM55.68 35.95h-1a.5.5 0 0 1 0-1h1a.5.5 0 0 1 0 1zM59.68 33.95h-1a.5.5 0 0 1 0-1h1a.5.5 0 0 1 0 1zM55.68 33.95h-1a.5.5 0 0 1 0-1h1a.5.5 0 0 1 0 1zM59.68 31.95h-1a.5.5 0 0 1 0-1h1a.5.5 0 0 1 0 1zM55.68 31.95h-1a.5.5 0 0 1 0-1h1a.5.5 0 0 1 0 1z"  style="fill: #13384d"/>
</svg>
