<svg id="Layer_1" data-name="Layer 1" xmlns="http://www.w3.org/2000/svg" width="128" height="128" viewBox="0 0 128 128">
  <title>dev-icon</title>
  <path d="M109,36.5l0-.08a3.2,3.2,0,0,0-.08-0.33l0-.07a2.76,2.76,0,0,0-.13-0.36l0-.08-0.09-.18-0.06-.09-0.06-.1a3.23,3.23,0,0,0-.21-0.28l0,0a3.39,3.39,0,0,0-.28-0.28l-0.06-.05-0.27-.21-0.06,0a2.77,2.77,0,0,0-.34-0.19h0L65.83,14.23a3.11,3.11,0,0,0-2.69,0L21.76,34.1A3.11,3.11,0,0,0,20,36.91V88a3.11,3.11,0,0,0,1.6,2.72L63,113.68h0a2.94,2.94,0,0,0,.34.16l0.06,0L63.67,114l0.09,0L64,114h0.09l0.36,0,0.36,0h0.09l0.27-.05,0.1,0,0.28-.09,0.06,0,0.34-.16h0l41.39-22.94A3.13,3.13,0,0,0,109,88V36.91h0A3.06,3.06,0,0,0,109,36.5Zm-6,49.69-35,19.5v-11a3.52,3.52,0,0,0-7,0v11L26,86.19V42a17.15,17.15,0,0,1,9.66,5L42,53.86a15.53,15.53,0,0,0-2.73,4.59,12,12,0,0,0,1.22,9.09l20.73-12A11.94,11.94,0,0,0,53.93,50a16.36,16.36,0,0,0-6.47.19l-0.47.3-7-7.75a23.92,23.92,0,0,0-9.58-5.86L64.48,20.48,99.09,37.1,76.54,49.61a3.11,3.11,0,0,0,1.51,5.83A3.56,3.56,0,0,0,79.68,55L103,42.19V61h-0.44A18.38,18.38,0,0,1,74.2,76.43a9.4,9.4,0,0,0,.61-3.32,9.26,9.26,0,0,0-2.71-6.56l-2.37,2.36-4.59-4.6h0A1.54,1.54,0,1,0,63,66.49l4.59,4.59-4,4-4.73-4.73h0a1.54,1.54,0,1,0-2.18,2.18l4.73,4.73L59,79.61a9.24,9.24,0,0,0,11.14,1.48,24.92,24.92,0,0,0,14,4.31c7.47,0,13.81-3.34,18.81-8.6v9.38Z" style="fill: #4069FF"/>
</svg>
