<svg id="Layer_1" data-name="Layer 1" xmlns="http://www.w3.org/2000/svg" width="64" height="64" viewBox="0 0 64 64">
  <title>dev-icon</title>
  <g>
    <path d="M58,17V11.17A5,5,0,0,0,52.83,6H11.17A5,5,0,0,0,6,11.17V17H58ZM27.62,10.08a2.19,2.19,0,1,1-2.19,2.19A2.2,2.2,0,0,1,27.62,10.08Zm-6.58,0a2.19,2.19,0,1,1-2.19,2.19A2.2,2.2,0,0,1,21,10.08Zm-6.58,0a2.19,2.19,0,1,1-2.19,2.19A2.2,2.2,0,0,1,14.46,10.08Z" style="fill: #13384d"/>
    <path d="M6,19V52.83A5,5,0,0,0,11.17,58H52.83A5,5,0,0,0,58,52.83V19H6ZM23.23,52H13.46a1,1,0,1,1,0-2h9.77A1,1,0,1,1,23.23,52Zm0-4H13.46a1,1,0,1,1,0-2h9.77A1,1,0,1,1,23.23,48ZM30,41.9A1.1,1.1,0,0,1,28.9,43H13.1A1.1,1.1,0,0,1,12,41.9V24.1A1.1,1.1,0,0,1,13.1,23H28.9A1.1,1.1,0,0,1,30,24.1V41.9Zm22,9A1.1,1.1,0,0,1,50.9,52H35.1A1.1,1.1,0,0,1,34,50.9V40.1A1.1,1.1,0,0,1,35.1,39H50.9A1.1,1.1,0,0,1,52,40.1V50.9Zm0-16A1.1,1.1,0,0,1,50.9,36H35.1A1.1,1.1,0,0,1,34,34.9V24.1A1.1,1.1,0,0,1,35.1,23H50.9A1.1,1.1,0,0,1,52,24.1V34.9Z" style="fill: #13384d"/>
  </g>
</svg>
